<?xml version="1.0" standalone="no"?>
<!DOCTYPE svg PUBLIC "-//W3C//DTD SVG 20010904//EN"
 "http://www.w3.org/TR/2001/REC-SVG-20010904/DTD/svg10.dtd">
<svg version="1.0" xmlns="http://www.w3.org/2000/svg"
 width="360.000000pt" height="270.000000pt" viewBox="0 0 360.000000 270.000000"
 preserveAspectRatio="xMidYMid meet">

<g transform="translate(0.000000,270.000000) scale(0.100000,-0.100000)"
fill="#808080" stroke="none">
<path d="M1849 1898 l-136 -81 196 -328 196 -328 188 -1 c104 0 186 3 184 8
-27 50 -473 790 -481 799 -9 10 -42 -6 -147 -69z"/>
<path d="M1520 1609 c-74 -45 -136 -83 -138 -84 -2 -2 47 -85 107 -186 89
-145 111 -190 111 -219 0 -37 1 -38 40 -38 40 -1 40 -1 40 39 l0 39 144 0 144
0 4 -61 c3 -56 2 -60 -17 -54 -56 16 -88 17 -130 1 -81 -32 -129 -120 -106
-198 26 -84 102 -136 184 -124 23 4 66 6 95 6 l52 -1 0 215 0 216 -38 0 -37 0
-159 265 c-87 146 -159 265 -160 265 -1 0 -62 -37 -136 -81z m425 -654 c19
-18 25 -35 25 -65 0 -56 -34 -90 -89 -90 -32 0 -44 6 -65 31 -35 41 -34 83 3
120 38 38 91 40 126 4z"/>
<path d="M1178 1312 c-70 -43 -128 -79 -128 -82 0 -3 9 -20 20 -37 l20 -33
185 0 c102 0 185 2 185 5 0 16 -135 225 -144 224 -6 0 -68 -35 -138 -77z"/>
<path d="M2650 1180 c-24 -24 -24 -29 -4 -58 19 -28 58 -28 78 -1 16 23 12 47
-12 67 -22 17 -39 15 -62 -8z m56 2 c17 -11 22 -35 12 -54 -12 -24 -55 -23
-68 1 -13 25 -13 27 6 45 17 17 33 20 50 8z"/>
<path d="M2660 1143 c0 -22 2 -25 10 -13 9 13 11 13 20 0 7 -12 10 -8 9 15 0
17 -3 24 -6 18 -2 -7 -9 -13 -14 -13 -6 0 -7 5 -4 10 3 6 1 10 -4 10 -6 0 -11
-12 -11 -27z"/>
<path d="M1480 1096 l0 -65 -27 15 c-110 57 -254 -61 -229 -188 17 -87 99
-146 184 -134 26 4 71 7 100 6 l52 -1 0 215 0 216 -40 0 -40 0 0 -64z m-26
-142 c58 -59 18 -154 -64 -154 -56 0 -90 34 -90 90 0 82 95 122 154 64z"/>
<path d="M955 1047 c-43 -20 -93 -80 -101 -122 -21 -115 72 -217 184 -201 26
4 71 7 100 6 l52 -1 0 161 0 161 -52 -1 c-29 -1 -75 1 -103 5 -32 3 -61 0 -80
-8z m129 -93 c35 -36 36 -91 1 -128 -33 -36 -95 -37 -130 -1 -36 35 -35 97 1
130 37 35 92 34 128 -1z"/>
<path d="M1600 895 l0 -165 40 0 40 0 0 165 0 165 -40 0 -40 0 0 -165z"/>
<path d="M2185 1046 c-43 -18 -93 -79 -101 -121 -21 -115 72 -217 184 -201 26
4 71 7 100 6 l52 -1 0 160 0 161 -40 0 c-22 0 -40 -4 -40 -9 0 -6 -12 -3 -27
5 -34 17 -88 17 -128 0z m129 -92 c58 -59 18 -154 -64 -154 -56 0 -90 34 -90
90 0 82 95 122 154 64z"/>
<path d="M2518 1044 c-34 -18 -48 -43 -48 -84 0 -60 26 -79 148 -110 65 -17
55 -60 -14 -60 -33 0 -64 17 -64 35 0 11 -11 15 -39 15 -22 0 -42 -3 -45 -8
-8 -14 22 -70 46 -83 65 -35 177 -27 217 15 56 59 29 133 -56 156 -100 26
-113 31 -113 50 0 34 72 42 92 10 10 -15 24 -20 55 -20 24 0 43 4 43 10 0 25
-26 61 -55 75 -41 19 -131 19 -167 -1z"/>
</g>
</svg>
