<?xml version="1.0" standalone="no"?>
<!DOCTYPE svg PUBLIC "-//W3C//DTD SVG 20010904//EN"
 "http://www.w3.org/TR/2001/REC-SVG-20010904/DTD/svg10.dtd">
<svg version="1.0" xmlns="http://www.w3.org/2000/svg"
 width="920.000000pt" height="281.000000pt" viewBox="0 0 920.000000 281.000000"
 preserveAspectRatio="xMidYMid meet">

<g transform="translate(0.000000,281.000000) scale(0.100000,-0.100000)"
fill="#808080" stroke="none">
<path d="M3589 2477 c-8 -18 -14 -34 -14 -37 0 -3 -4 -11 -8 -17 -4 -7 -19
-42 -32 -78 l-23 -65 21 -2 c25 -2 151 -4 607 -8 173 -1 320 -2 327 -1 9 1 11
19 7 64 -8 99 -15 146 -22 151 -6 3 -230 10 -689 21 l-161 4 -13 -32z"/>
<path d="M5284 2472 c-145 -2 -205 -6 -211 -15 -5 -6 -20 -39 -32 -72 -35 -93
-37 -98 -54 -137 l-16 -36 36 -7 c20 -3 53 -8 75 -11 63 -7 120 -13 178 -19
30 -4 69 -8 87 -11 18 -2 60 -6 95 -9 35 -3 72 -8 83 -10 11 -2 31 -4 45 -5
51 -4 -43 -18 -160 -25 -63 -3 -126 -8 -140 -10 -14 -2 -70 -7 -125 -10 -165
-9 -222 -16 -238 -28 -8 -7 -25 -32 -38 -57 -13 -25 -28 -48 -34 -52 -7 -5 -7
-8 0 -8 6 0 5 -3 -1 -8 -11 -7 -114 -182 -126 -213 -5 -14 2 -18 40 -25 26 -4
52 -8 57 -10 6 -1 28 -5 50 -8 23 -4 52 -8 65 -11 13 -3 40 -7 60 -10 20 -3
47 -7 60 -10 40 -8 104 -18 118 -18 6 0 12 -4 12 -9 0 -11 13 -10 -380 -22
-124 -3 -274 -8 -335 -11 -60 -3 -198 -7 -305 -10 -107 -4 -240 -8 -295 -10
-55 -2 -185 -6 -290 -10 -498 -14 -478 -12 -502 -42 -12 -14 -33 -49 -48 -77
-15 -28 -34 -63 -43 -78 -52 -83 -60 -98 -54 -102 7 -4 233 -11 647 -22 121
-2 285 -7 365 -9 80 -2 262 -6 405 -10 143 -3 301 -8 350 -10 50 -3 142 -5
205 -6 124 -1 130 -13 10 -23 -41 -3 -91 -8 -110 -11 -19 -3 -56 -7 -82 -10
-26 -3 -65 -7 -85 -10 -21 -3 -60 -7 -88 -10 -27 -4 -61 -8 -75 -10 -14 -2
-47 -6 -75 -10 -27 -3 -66 -7 -85 -9 -19 -3 -63 -8 -98 -11 -35 -4 -72 -8 -82
-10 -10 -2 -50 -7 -87 -10 -37 -4 -79 -9 -93 -11 -49 -9 -359 -24 -595 -30
-132 -3 -269 -7 -305 -9 -36 -2 -111 -4 -168 -4 -88 -1 -104 -3 -109 -18 -3
-10 -21 -39 -40 -64 -18 -26 -33 -52 -33 -58 0 -6 -3 -11 -8 -11 -4 0 -16 -17
-27 -37 -11 -21 -22 -40 -26 -43 -3 -3 -8 -13 -12 -23 -7 -19 -29 -18 749 -22
l272 -1 15 31 c56 115 91 181 98 185 4 3 12 18 18 33 10 25 31 38 31 18 0 -5
10 -31 22 -58 12 -26 22 -51 22 -54 1 -3 8 -21 17 -40 9 -19 22 -47 29 -64 26
-62 39 -80 62 -81 13 -1 88 -4 168 -8 80 -3 200 -9 267 -12 122 -7 197 -10
283 -13 76 -3 24 -20 -81 -26 -52 -3 -116 -8 -144 -11 -27 -2 -77 -7 -110 -9
-33 -3 -78 -8 -100 -10 -22 -2 -78 -7 -125 -11 -47 -4 -94 -8 -105 -9 -11 -1
-32 -3 -48 -4 -25 -1 -27 -4 -21 -28 3 -16 12 -45 20 -65 8 -21 12 -38 9 -38
-2 0 2 -15 10 -34 8 -18 17 -47 20 -63 2 -17 12 -47 20 -67 l16 -37 102 5 c56
4 433 8 838 11 404 3 758 9 785 14 70 14 231 73 244 90 3 3 31 19 63 35 31 16
57 32 57 37 0 5 6 9 13 9 29 1 260 221 287 275 8 17 18 32 21 35 9 9 49 97 55
121 3 13 8 35 11 49 18 76 -7 226 -46 271 -6 8 -29 37 -51 64 -22 28 -55 61
-74 75 -20 14 -36 27 -36 30 0 3 28 20 63 38 171 89 289 171 363 252 92 101
121 148 145 238 20 69 20 224 0 260 -6 10 -12 31 -15 45 -4 26 -27 81 -51 127
-15 29 -87 77 -127 85 -31 6 -71 14 -108 22 -26 6 -945 10 -1286 5z m721 -439
c65 -22 69 -24 98 -59 30 -36 37 -81 22 -139 -10 -37 -97 -125 -145 -147 -69
-32 -154 -43 -236 -31 -42 6 -80 15 -85 20 -9 9 15 60 125 266 l58 108 62 -2
c33 -2 79 -9 101 -16z m-450 -823 c14 -5 36 -12 50 -14 13 -3 30 -9 37 -15 72
-59 83 -79 79 -150 -3 -43 -14 -72 -38 -98 -6 -7 -13 -17 -15 -21 -5 -15 -101
-79 -143 -97 -52 -22 -73 -27 -168 -39 -44 -6 -227 19 -227 31 0 9 92 188 104
203 7 8 39 62 71 119 l58 104 83 -7 c45 -3 94 -10 109 -16z m-798 -526 c-3 -3
-12 -4 -19 -1 -8 3 -5 6 6 6 11 1 17 -2 13 -5z"/>
<path d="M4277 2083 c-1 -1 -148 -4 -327 -8 -463 -9 -589 -13 -610 -20 -16 -5
-31 -29 -35 -55 -2 -13 -60 -126 -68 -131 -5 -3 -8 -10 -8 -15 1 -5 -6 -23
-16 -41 -9 -18 -15 -34 -13 -37 4 -3 217 -12 550 -21 47 -2 141 -5 210 -9 110
-5 475 -18 570 -20 l35 -1 -2 70 c-1 39 -7 121 -14 182 l-11 113 -130 -3 c-71
-1 -130 -3 -131 -4z"/>
<path d="M3097 524 c-1 -1 -138 -4 -304 -7 -233 -4 -306 -9 -316 -19 -15 -15
-107 -156 -107 -164 0 -3 -7 -12 -15 -20 -8 -9 -15 -20 -15 -25 0 -10 1024 -8
1034 2 7 7 126 228 126 234 0 5 -397 4 -403 -1z"/>
</g>
</svg>
