<?xml version="1.0" standalone="no"?>
<!DOCTYPE svg PUBLIC "-//W3C//DTD SVG 20010904//EN"
 "http://www.w3.org/TR/2001/REC-SVG-20010904/DTD/svg10.dtd">
<svg version="1.0" xmlns="http://www.w3.org/2000/svg"
 width="920.000000pt" height="533.000000pt" viewBox="0 0 920.000000 533.000000"
 preserveAspectRatio="xMidYMid meet">

<g transform="translate(0.000000,533.000000) scale(0.100000,-0.100000)"
fill="#808080" stroke="none">
<path d="M6369 2980 c-8 -5 -26 -11 -40 -14 -13 -3 -78 -19 -144 -36 -66 -18
-169 -44 -230 -60 -139 -36 -380 -100 -510 -135 -55 -15 -156 -42 -225 -60
-69 -18 -170 -45 -225 -60 -55 -14 -143 -37 -195 -51 -103 -27 -209 -55 -515
-138 -604 -164 -625 -169 -775 -170 -109 0 -132 3 -185 23 -81 33 -154 107
-184 186 -33 88 -26 233 18 361 17 51 31 95 31 98 0 35 -209 -215 -295 -353
-50 -81 -102 -195 -129 -282 -21 -70 -26 -107 -26 -194 0 -98 2 -111 31 -168
52 -106 116 -159 246 -202 72 -23 94 -26 170 -22 166 8 345 60 643 187 361
153 847 359 970 410 69 29 143 60 165 70 77 34 162 70 340 145 191 81 238 101
270 115 11 5 76 32 145 61 68 28 143 59 165 69 22 10 85 37 140 61 55 23 145
62 200 87 55 25 125 53 155 63 35 11 46 18 30 18 -14 0 -32 -4 -41 -9z"/>
</g>
</svg>
