<?xml version="1.0" standalone="no"?>
<!DOCTYPE svg PUBLIC "-//W3C//DTD SVG 20010904//EN"
 "http://www.w3.org/TR/2001/REC-SVG-20010904/DTD/svg10.dtd">
<svg version="1.0" xmlns="http://www.w3.org/2000/svg"
 width="665.000000pt" height="375.000000pt" viewBox="0 0 665.000000 375.000000"
 preserveAspectRatio="xMidYMid meet">

<g transform="translate(0.000000,375.000000) scale(0.100000,-0.100000)"
fill="#f48915" stroke="none">
<path d="M4795 3391 c-16 -10 -104 -96 -195 -192 -91 -96 -248 -259 -350 -364
-240 -245 -490 -503 -665 -685 -77 -80 -142 -147 -145 -150 -3 -3 -66 -68
-140 -145 -74 -77 -193 -200 -263 -272 -71 -73 -132 -133 -137 -133 -5 0 -64
78 -131 173 -67 94 -138 195 -158 222 -20 28 -44 62 -53 76 -28 44 -76 86
-103 92 -15 2 -42 1 -60 -3 -34 -8 -239 -156 -301 -217 -44 -43 -52 -91 -26
-141 19 -37 153 -216 342 -457 47 -60 148 -192 224 -293 113 -151 145 -187
181 -204 42 -21 45 -21 89 -4 47 18 106 83 272 302 38 50 112 145 165 210 52
65 138 173 190 239 53 66 158 199 234 295 77 96 219 279 318 405 98 127 195
250 215 275 20 24 84 105 142 180 161 206 254 324 260 330 11 10 197 246 228
289 25 34 32 54 32 88 0 87 -88 132 -165 84z"/>
<path d="M1733 2664 c-66 -33 -63 21 -63 -1160 0 -1175 -3 -1116 63 -1147 32
-16 124 -17 1099 -16 796 0 1072 3 1098 12 19 7 44 27 57 46 l23 34 0 669 c0
467 -3 669 -11 666 -5 -2 -57 -61 -113 -132 l-103 -129 -8 -153 c-3 -84 -5
-292 -4 -463 2 -204 0 -314 -7 -321 -7 -7 -308 -9 -935 -8 l-924 3 0 940 0
940 897 5 898 5 105 105 c58 57 105 108 105 112 0 5 -483 8 -1072 8 -954 0
-1077 -2 -1105 -16z"/>
</g>
</svg>
