<?xml version="1.0" standalone="no"?>
<!DOCTYPE svg PUBLIC "-//W3C//DTD SVG 20010904//EN"
 "http://www.w3.org/TR/2001/REC-SVG-20010904/DTD/svg10.dtd">
<svg version="1.0" xmlns="http://www.w3.org/2000/svg"
 width="360.000000pt" height="270.000000pt" viewBox="0 0 360.000000 270.000000"
 preserveAspectRatio="xMidYMid meet">

<g transform="translate(0.000000,270.000000) scale(0.100000,-0.100000)"
fill="#808080" stroke="none">
<path d="M805 2674 c-214 -44 -582 -180 -743 -272 l-64 -37 7 -45 c20 -137 96
-271 227 -396 94 -90 185 -153 328 -228 l99 -52 -77 -38 c-330 -162 -545 -398
-577 -632 l-6 -50 98 -51 c158 -83 351 -157 559 -217 102 -30 286 -67 293 -60
3 3 4 145 2 317 -2 206 1 335 9 377 12 64 52 155 86 198 l19 22 125 -24 c217
-43 319 -51 610 -50 286 0 405 11 619 55 l96 20 19 -23 c32 -39 76 -142 87
-204 6 -37 7 -174 3 -370 -4 -184 -3 -314 3 -317 16 -10 214 33 378 83 182 55
497 190 554 236 22 19 23 22 11 80 -29 138 -95 248 -225 372 -94 91 -205 167
-337 233 l-87 43 100 53 c154 82 246 148 344 247 123 125 190 246 209 378 l7
47 -143 70 c-226 111 -467 195 -695 240 -55 12 -106 21 -112 21 -8 0 -11 -99
-11 -352 1 -393 0 -407 -65 -510 -20 -32 -38 -58 -40 -58 -2 0 -34 7 -72 16
-164 38 -329 56 -573 61 -275 6 -475 -9 -686 -52 l-119 -24 -18 22 c-30 38
-67 114 -82 174 -12 45 -15 127 -15 390 0 260 -3 333 -12 332 -7 0 -67 -11
-133 -25z m1154 -894 c104 -14 193 -37 288 -77 121 -51 122 -56 22 -102 -118
-55 -214 -80 -361 -93 -223 -21 -445 15 -609 97 -38 20 -67 40 -64 46 10 15
93 54 175 81 64 22 131 36 240 52 53 7 238 5 309 -4z"/>
<path d="M94 206 c-3 -9 -4 -50 -2 -92 5 -102 18 -114 133 -114 68 0 87 4 109
21 25 19 26 25 26 110 l0 90 -32 -3 -33 -3 -3 -78 -3 -78 -62 3 -62 3 -5 75
c-5 73 -6 75 -33 78 -18 2 -29 -2 -33 -12z"/>
<path d="M390 110 l0 -110 30 0 29 0 3 76 3 77 63 -77 62 -76 50 0 50 0 0 111
0 110 -32 -3 -33 -3 -5 -72 -5 -72 -44 60 c-55 75 -75 89 -128 89 l-43 0 0
-110z"/>
<path d="M710 110 l0 -111 33 3 c25 2 31 7 29 23 -2 19 -1 18 14 -3 14 -19 25
-22 86 -22 60 0 72 3 93 25 35 35 36 121 1 162 -23 27 -28 28 -140 31 l-116 4
0 -112z m206 26 c3 -13 4 -35 2 -47 -3 -22 -8 -24 -75 -27 l-73 -3 0 44 c0 24
3 47 7 50 3 4 35 7 69 7 59 0 64 -2 70 -24z"/>
<path d="M1287 213 c-4 -3 -7 -53 -7 -110 l0 -103 35 0 35 0 1 48 c0 46 1 46
16 25 12 -19 25 -23 64 -23 46 0 49 -2 49 -25 0 -22 4 -25 35 -25 33 0 35 2
35 33 0 18 -5 38 -12 45 -9 9 -9 15 0 24 7 7 12 29 12 49 0 58 -23 69 -151 69
-58 0 -109 -3 -112 -7z m191 -75 c-3 -21 -9 -23 -65 -26 -62 -3 -63 -2 -63 23
0 24 2 25 66 25 62 0 65 -1 62 -22z"/>
<path d="M2057 214 c-4 -4 -7 -54 -7 -111 l0 -104 33 3 c30 3 32 6 37 48 5 37
7 41 13 23 7 -20 16 -23 57 -23 43 0 49 -3 52 -22 2 -19 10 -24 41 -26 35 -3
37 -2 37 27 0 16 -6 36 -14 43 -11 12 -11 17 0 33 18 24 18 66 0 91 -12 16
-29 19 -128 22 -62 2 -116 0 -121 -4z m190 -70 c9 -23 -15 -34 -74 -34 -50 0
-53 1 -53 25 0 24 3 25 60 25 46 0 62 -4 67 -16z"/>
<path d="M2347 213 c-4 -3 -7 -53 -7 -110 l0 -103 30 0 29 0 3 73 3 72 40 -72
c36 -65 43 -73 70 -73 27 0 34 8 70 73 l40 72 3 -72 3 -73 30 0 30 0 -3 108
-3 107 -42 3 c-47 4 -52 0 -97 -81 l-33 -58 -31 64 c-18 36 -39 68 -48 71 -21
8 -79 8 -87 -1z"/>
<path d="M2760 214 c-30 -12 -40 -38 -40 -109 0 -100 7 -105 142 -105 133 0
143 8 143 111 0 96 -9 103 -133 106 -53 1 -104 0 -112 -3z m168 -107 l3 -48
-68 3 -68 3 -3 33 c-6 58 1 63 70 60 l63 -3 3 -48z"/>
<path d="M3037 214 c-4 -4 -7 -43 -7 -86 0 -70 3 -82 25 -103 22 -23 32 -25
110 -25 78 0 88 2 111 25 23 23 25 31 22 107 l-3 83 -30 0 -30 0 -5 -75 -5
-75 -60 0 -60 0 -5 75 c-5 71 -6 75 -30 78 -14 2 -29 0 -33 -4z"/>
<path d="M3337 213 c-4 -3 -7 -53 -7 -110 l0 -104 33 3 c30 3 32 6 37 48 4 37
7 41 13 23 7 -18 17 -23 60 -25 45 -3 52 -6 55 -25 3 -19 10 -23 38 -23 31 0
34 3 34 29 0 16 -7 36 -15 44 -13 13 -13 16 0 27 22 18 19 76 -5 100 -18 18
-33 20 -128 20 -60 0 -112 -3 -115 -7z m188 -78 c0 -18 -8 -20 -62 -23 -62 -3
-63 -2 -63 23 0 25 1 26 63 23 54 -3 62 -5 62 -23z"/>
<path d="M1019 189 c-16 -31 -8 -167 11 -179 8 -5 61 -10 118 -10 102 0 102 0
102 25 0 24 -2 24 -82 27 l-83 3 -3 30 c-2 27 -1 28 11 13 11 -14 29 -18 81
-18 69 0 74 3 52 33 -10 13 -28 17 -80 17 -52 0 -66 3 -66 15 0 12 16 15 85
15 84 0 85 0 85 25 l0 25 -110 0 c-101 0 -110 -2 -121 -21z"/>
<path d="M1804 193 c-6 -10 -32 -57 -58 -105 l-48 -88 40 0 c36 0 40 3 58 41
17 38 19 40 28 20 7 -17 18 -21 57 -21 39 0 49 -4 54 -20 5 -16 15 -20 47 -20
l40 0 -37 68 c-21 37 -47 84 -58 105 -19 34 -24 37 -66 37 -33 0 -49 -5 -57
-17z m74 -68 c16 -35 16 -35 -23 -35 l-34 0 17 30 c21 36 26 37 40 5z"/>
</g>
</svg>
